name C:\Users\u0101727\Documents\MyRepositories\upper-imu-dc\Results\main_tracking\Case_60\kinematics.mot
datacolumns 10
datarows 47
range 4.62000000 5.08000000
endheader 
time	clav_prot	clav_elev	scapula_abduction	scapula_elevation	scapula_upward_rot	scapula_winging	plane_elv	shoulder_elv	axial_rot	
          4.62000000	        -38.84564138	         13.48286534	        -15.55149507	          0.65163301	         54.34507382	        -11.17206458	          9.96165213	         46.55934506	          3.68119498	
          4.63000000	        -39.01397696	         13.48366477	        -15.59097271	          0.62382655	         54.62333810	        -11.28332426	         10.07597143	         46.76422484	          3.69184832	
          4.64000000	        -39.17916513	         13.48266526	        -15.62814312	          0.59580220	         54.89717994	        -11.39224536	         10.19234626	         46.97101137	          3.70122370	
          4.65000000	        -39.34122978	         13.47998368	        -15.66319405	          0.56761807	         55.16651188	        -11.49883830	         10.31089968	         47.17963268	          3.70958221	
          4.66000000	        -39.50021856	         13.47570206	        -15.69626797	          0.53930294	         55.43132509	        -11.60312964	         10.43165110	         47.39000085	          3.71699471	
          4.67000000	        -39.65619798	         13.46986602	        -15.72745697	          0.51085658	         55.69168569	        -11.70515792	         10.55452176	         47.60201184	          3.72334777	
          4.68000000	        -39.80924715	         13.46248779	        -15.75680179	          0.48225334	         55.94772607	        -11.80496910	         10.67934840	         47.81554752	          3.72836583	
          4.69000000	        -39.95945105	         13.45355348	        -15.78429553	          0.45344870	         56.19963183	        -11.90261210	         10.80590483	         48.03047976	          3.73164851	
          4.70000000	        -40.10689371	         13.44303369	        -15.80989120	          0.42438796	         56.44762568	        -11.99813480	         10.93392904	         48.24667563	          3.73271881	
          4.71000000	        -40.25165163	         13.43089512	        -15.83351145	          0.39501543	         56.69194980	        -12.09158054	         11.06315181	         48.46400317	          3.73107556	
          4.72000000	        -40.39378799	         13.41711113	        -15.85505839	          0.36528267	         56.93284846	        -12.18298509	         11.19332292	         48.68233673	          3.72624280	
          4.73000000	        -40.53334776	         13.40166966	        -15.87442240	          0.33515466	         57.17055241	        -12.27237416	         11.32423203	         48.90156131	          3.71781106	
          4.74000000	        -40.67035437	         13.38457826	        -15.89148973	          0.30461363	         57.40526601	        -12.35976166	         11.45572336	         49.12157545	          3.70546832	
          4.75000000	        -40.80480839	         13.36586635	        -15.90614948	          0.27366068	         57.63715723	        -12.44514899	         11.58770476	         49.34229220	          3.68902131	
          4.76000000	        -40.93668839	         13.34558532	        -15.91830094	          0.24231569	         57.86635049	        -12.52852553	         11.72015220	         49.56363805	          3.66840848	
          4.77000000	        -41.06595418	         13.32380691	        -15.92786159	          0.21061566	         58.09292215	        -12.60987047	         11.85311019	         49.78554969	          3.64370581	
          4.78000000	        -41.19255218	         13.30062002	        -15.93477546	          0.17861181	         58.31689879	        -12.68915580	         11.98668864	         50.00796891	          3.61512540	
          4.79000000	        -41.31642208	         13.27612655	        -15.93902057	          0.14636589	         58.53825871	        -12.76635015	         12.12105563	         50.23083727	          3.58300666	
          4.80000000	        -41.43750439	         13.25043715	        -15.94061428	          0.11394616	         58.75693748	        -12.84142334	         12.25642638	         50.45409241	          3.54779967	
          4.81000000	        -41.55574797	         13.22366725	        -15.93961549	          0.08142373	         58.97283738	        -12.91435091	         12.39304851	         50.67766738	          3.51004145	
          4.82000000	        -41.67111660	         13.19593389	        -15.93612337	          0.04886943	         59.18583990	        -12.98511856	         12.53118447	         50.90149334	          3.47032674	
          4.83000000	        -41.78359395	         13.16735347	        -15.93027221	          0.01635155	         59.39582006	        -13.05372541	         12.67109303	         51.12550499	          3.42927564	
          4.84000000	        -41.89318597	         13.13804045	        -15.92222290	         -0.01606548	         59.60266066	        -13.12018592	         12.81301135	         51.34964800	          3.38750139	
          4.85000000	        -41.99992056	         13.10810693	        -15.91215169	         -0.04832141	         59.80626496	        -13.18453003	         12.95713933	         51.57388732	          3.34558103	
          4.86000000	        -42.10384457	         13.07766285	        -15.90023771	         -0.08035976	         60.00656633	        -13.24680162	         13.10362737	         51.79821532	          3.30403133	
          4.87000000	        -42.20501906	         13.04681647	        -15.88665076	         -0.11212698	         60.20353418	        -13.30705560	         13.25256791	         52.02265865	          3.26329152	
          4.88000000	        -42.30351384	         13.01567464	        -15.87154096	         -0.14357158	         60.39717635	        -13.36535441	         13.40399080	         52.24728321	          3.22371289	
          4.89000000	        -42.39940247	         12.98434237	        -15.85503150	         -0.17464375	         60.58753838	        -13.42176459	         13.55786217	         52.47219630	          3.18555473	
          4.90000000	        -42.49275862	         12.95292098	        -15.83721483	         -0.20529608	         60.77470037	        -13.47635369	         13.71408629	         52.69754472	          3.14898509	
          4.91000000	        -42.58365416	         12.92150388	        -15.81815262	         -0.23548591	         60.95877156	        -13.52918785	         13.87250971	         52.92350767	          3.11408484	
          4.92000000	        -42.67215894	         12.89016995	        -15.79787906	         -0.26517951	         61.13988296	        -13.58032998	         14.03292730	         53.15028392	          3.08085383	
          4.93000000	        -42.75834179	         12.85897514	        -15.77640664	         -0.29435763	         61.31817832	        -13.62983829	         14.19509003	         53.37807408	          3.04921891	
          4.94000000	        -42.84227190	         12.82794394	        -15.75373350	         -0.32302107	         61.49380417	        -13.67776516	         14.35871466	         53.60706064	          3.01904420	
          4.95000000	        -42.92401982	         12.79706290	        -15.72985074	         -0.35119512	         61.66689977	        -13.72415614	         14.52349503	         53.83738908	          2.99014377	
          4.96000000	        -43.00365739	         12.76627773	        -15.70474891	         -0.37893139	         61.83758807	        -13.76904910	         14.68911442	         54.06915313	          2.96229639	
          4.97000000	        -43.08125648	         12.73549470	        -15.67842254	         -0.40630691	         62.00596859	        -13.81247357	         14.85525791	         54.30238578	          2.93526112	
          4.98000000	        -43.15688669	         12.70458596	        -15.65087247	         -0.43342053	         62.17211294	        -13.85445023	         15.02162353	         54.53705638	          2.90879157	
          4.99000000	        -43.23061268	         12.67339781	        -15.62210570	         -0.46038734	         62.33606386	        -13.89499088	         15.18793072	         54.77307372	          2.88264672	
          5.00000000	        -43.30249169	         12.64176059	        -15.59213313	         -0.48733206	         62.49783803	        -13.93409886	         15.35392499	         55.01029387	          2.85659593	
          5.01000000	        -43.37257168	         12.60949897	        -15.56096527	         -0.51438225	         62.65743268	        -13.97176998	         15.51937798	         55.24853172	          2.83041726	
          5.02000000	        -43.44089031	         12.57644141	        -15.52860653	         -0.54166196	         62.81483520	        -14.00799377	         15.68408295	         55.48757438	          2.80388856	
          5.03000000	        -43.50747453	         12.54242802	        -15.49504819	         -0.56928658	         62.97003459	        -14.04275484	         15.84784663	         55.72719500	          2.77677283	
          5.04000000	        -43.57234079	         12.50731644	        -15.46026120	         -0.59735890	         63.12303355	        -14.07603407	         16.01047836	         55.96716558	          2.74879974	
          5.05000000	        -43.63549556	         12.47098548	        -15.42418957	         -0.62596665	         63.27385935	        -14.10780960	         16.17177845	         56.20726794	          2.71964653	
          5.06000000	        -43.69693625	         12.43333682	        -15.38674576	         -0.65518132	         63.42257210	        -14.13805758	         16.33152742	         56.44730197	          2.68892200	
          5.07000000	        -43.75665217	         12.39429517	        -15.34780887	         -0.68505798	         63.56926875	        -14.16675262	         16.48947848	         56.68709079	          2.65615735	
          5.08000000	        -43.81462549	         12.35380729	        -15.30722661	         -0.71563587	         63.71408232	        -14.19386812	         16.64535491	         56.92648259	          2.62080693	
